<?xml version="1.0" encoding="UTF-8" standalone="no"?>
<!DOCTYPE svg PUBLIC "-//W3C//DTD SVG 1.1//EN"
 "http://www.w3.org/Graphics/SVG/1.1/DTD/svg11.dtd">
<!-- Generated by graphviz version 2.43.0 (0)
 -->
<!-- Title: graphname Pages: 1 -->
<svg width="2122pt" height="493pt"
 viewBox="0.00 0.00 2121.76 493.00" xmlns="http://www.w3.org/2000/svg" xmlns:xlink="http://www.w3.org/1999/xlink">
<g id="graph0" class="graph" transform="scale(1 1) rotate(0) translate(4 489)">
<title>graphname</title>
<polygon fill="white" stroke="transparent" points="-4,4 -4,-489 2117.76,-489 2117.76,4 -4,4"/>
<!-- t___m1__dynamic_obstacles -->
<g id="node1" class="node">
<title>t___m1__dynamic_obstacles</title>
<g id="a_node1"><a xlink:href="topic_3A__m1__dynamic_obstacles" xlink:title="topic:/m1/dynamic_obstacles">
<polygon fill="none" stroke="black" points="182,-434 0,-434 0,-398 182,-398 182,-434"/>
<text text-anchor="middle" x="91" y="-412.3" font-family="Times,serif" font-size="14.00">/m1/dynamic_obstacles</text>
</a>
</g>
</g>
<!-- n___imperative_controller -->
<g id="node2" class="node">
<title>n___imperative_controller</title>
<g id="a_node2"><a xlink:href="__imperative_controller" xlink:title="/imperative_controller">
<ellipse fill="none" stroke="black" cx="309.74" cy="-374" rx="113.98" ry="18"/>
<text text-anchor="middle" x="309.74" y="-370.3" font-family="Times,serif" font-size="14.00">/imperative_controller</text>
</a>
</g>
</g>
<!-- t___m1__dynamic_obstacles&#45;&gt;n___imperative_controller -->
<g id="edge1" class="edge">
<title>t___m1__dynamic_obstacles&#45;&gt;n___imperative_controller</title>
<g id="a_edge1"><a xlink:title="Subscription&#10;node_name: /imperative_controller&#10;topic_name: /m1/dynamic_obstacles&#10;QoS settings&#10;&#45; reliability: reliable&#10;&#45; durability: volatile&#10;&#45; lifespan: 9223372036854775807 ns&#10;&#45; deadline: 9223372036854775807 ns&#10;&#45; liveliness: automatic&#10;&#45; liveliness_lease_duration: 9223372036854775807 ns&#10;&#45; avoid_ros_namespace_conventions: False">
<path fill="none" stroke="black" d="M182.03,-398.55C196.97,-395.66 212.37,-392.67 227.08,-389.82"/>
<polygon fill="black" stroke="black" points="227.99,-393.21 237.14,-387.87 226.66,-386.34 227.99,-393.21"/>
</a>
</g>
</g>
<!-- t___cmd_vel -->
<g id="node18" class="node">
<title>t___cmd_vel</title>
<g id="a_node18"><a xlink:href="topic_3A__cmd_vel" xlink:title="topic:/cmd_vel">
<polygon fill="none" stroke="black" points="576.48,-311 497.48,-311 497.48,-275 576.48,-275 576.48,-311"/>
<text text-anchor="middle" x="536.98" y="-289.3" font-family="Times,serif" font-size="14.00">/cmd_vel</text>
</a>
</g>
</g>
<!-- n___imperative_controller&#45;&gt;t___cmd_vel -->
<g id="edge32" class="edge">
<title>n___imperative_controller&#45;&gt;t___cmd_vel</title>
<g id="a_edge32"><a xlink:title="Publisher&#10;node_name: /imperative_controller&#10;topic_name: /cmd_vel&#10;QoS settings&#10;&#45; reliability: reliable&#10;&#45; durability: volatile&#10;&#45; lifespan: 9223372036854775807 ns&#10;&#45; deadline: 9223372036854775807 ns&#10;&#45; liveliness: automatic&#10;&#45; liveliness_lease_duration: 9223372036854775807 ns&#10;&#45; avoid_ros_namespace_conventions: False">
<path fill="none" stroke="black" d="M347.1,-356.95C372.17,-345.59 406.42,-330.82 437.48,-320 453.57,-314.4 471.45,-309.2 487.52,-304.89"/>
<polygon fill="black" stroke="black" points="488.47,-308.25 497.25,-302.32 486.69,-301.49 488.47,-308.25"/>
</a>
</g>
</g>
<!-- t___imperative__planned_path -->
<g id="node21" class="node">
<title>t___imperative__planned_path</title>
<g id="a_node21"><a xlink:href="topic_3A__imperative__planned_path" xlink:title="topic:/imperative/planned_path">
<polygon fill="none" stroke="black" points="636.48,-419 437.48,-419 437.48,-383 636.48,-383 636.48,-419"/>
<text text-anchor="middle" x="536.98" y="-397.3" font-family="Times,serif" font-size="14.00">/imperative/planned_path</text>
</a>
</g>
</g>
<!-- n___imperative_controller&#45;&gt;t___imperative__planned_path -->
<g id="edge33" class="edge">
<title>n___imperative_controller&#45;&gt;t___imperative__planned_path</title>
<g id="a_edge33"><a xlink:title="Publisher&#10;node_name: /imperative_controller&#10;topic_name: /imperative/planned_path&#10;QoS settings&#10;&#45; reliability: reliable&#10;&#45; durability: volatile&#10;&#45; lifespan: 9223372036854775807 ns&#10;&#45; deadline: 9223372036854775807 ns&#10;&#45; liveliness: automatic&#10;&#45; liveliness_lease_duration: 9223372036854775807 ns&#10;&#45; avoid_ros_namespace_conventions: False">
<path fill="none" stroke="black" d="M401.06,-384.83C409.59,-385.85 418.3,-386.89 426.98,-387.93"/>
<polygon fill="black" stroke="black" points="426.8,-391.44 437.15,-389.15 427.64,-384.49 426.8,-391.44"/>
</a>
</g>
</g>
<!-- t___imperative__tracks -->
<g id="node22" class="node">
<title>t___imperative__tracks</title>
<g id="a_node22"><a xlink:href="topic_3A__imperative__tracks" xlink:title="topic:/imperative/tracks">
<polygon fill="none" stroke="black" points="610.48,-365 463.48,-365 463.48,-329 610.48,-329 610.48,-365"/>
<text text-anchor="middle" x="536.98" y="-343.3" font-family="Times,serif" font-size="14.00">/imperative/tracks</text>
</a>
</g>
</g>
<!-- n___imperative_controller&#45;&gt;t___imperative__tracks -->
<g id="edge34" class="edge">
<title>n___imperative_controller&#45;&gt;t___imperative__tracks</title>
<g id="a_edge34"><a xlink:title="Publisher&#10;node_name: /imperative_controller&#10;topic_name: /imperative/tracks&#10;QoS settings&#10;&#45; reliability: reliable&#10;&#45; durability: volatile&#10;&#45; lifespan: 9223372036854775807 ns&#10;&#45; deadline: 9223372036854775807 ns&#10;&#45; liveliness: automatic&#10;&#45; liveliness_lease_duration: 9223372036854775807 ns&#10;&#45; avoid_ros_namespace_conventions: False">
<path fill="none" stroke="black" d="M401.06,-363.17C418.18,-361.12 436.03,-358.98 452.92,-356.96"/>
<polygon fill="black" stroke="black" points="453.79,-360.38 463.3,-355.71 452.95,-353.43 453.79,-360.38"/>
</a>
</g>
</g>
<!-- t___ground_truth__odom -->
<g id="node3" class="node">
<title>t___ground_truth__odom</title>
<g id="a_node3"><a xlink:href="topic_3A__ground_truth__odom" xlink:title="topic:/ground_truth/odom">
<polygon fill="none" stroke="black" points="1083.76,-143 924.76,-143 924.76,-107 1083.76,-107 1083.76,-143"/>
<text text-anchor="middle" x="1004.26" y="-121.3" font-family="Times,serif" font-size="14.00">/ground_truth/odom</text>
</a>
</g>
</g>
<!-- n___odom_slip_simulator -->
<g id="node4" class="node">
<title>n___odom_slip_simulator</title>
<g id="a_node4"><a xlink:href="__odom_slip_simulator" xlink:title="/odom_slip_simulator">
<ellipse fill="none" stroke="black" cx="1259.26" cy="-126" rx="108.58" ry="18"/>
<text text-anchor="middle" x="1259.26" y="-122.3" font-family="Times,serif" font-size="14.00">/odom_slip_simulator</text>
</a>
</g>
</g>
<!-- t___ground_truth__odom&#45;&gt;n___odom_slip_simulator -->
<g id="edge2" class="edge">
<title>t___ground_truth__odom&#45;&gt;n___odom_slip_simulator</title>
<g id="a_edge2"><a xlink:title="Subscription&#10;node_name: /odom_slip_simulator&#10;topic_name: /ground_truth/odom&#10;QoS settings&#10;&#45; reliability: reliable&#10;&#45; durability: volatile&#10;&#45; lifespan: 9223372036854775807 ns&#10;&#45; deadline: 9223372036854775807 ns&#10;&#45; liveliness: automatic&#10;&#45; liveliness_lease_duration: 9223372036854775807 ns&#10;&#45; avoid_ros_namespace_conventions: False">
<path fill="none" stroke="black" d="M1083.92,-125.31C1101.75,-125.38 1121.07,-125.46 1140.13,-125.53"/>
<polygon fill="black" stroke="black" points="1140.36,-129.03 1150.37,-125.57 1140.38,-122.03 1140.36,-129.03"/>
</a>
</g>
</g>
<!-- t___odom -->
<g id="node20" class="node">
<title>t___odom</title>
<g id="a_node20"><a xlink:href="topic_3A__odom" xlink:title="topic:/odom">
<polygon fill="none" stroke="black" points="1585.76,-144 1525.76,-144 1525.76,-108 1585.76,-108 1585.76,-144"/>
<text text-anchor="middle" x="1555.76" y="-122.3" font-family="Times,serif" font-size="14.00">/odom</text>
</a>
</g>
</g>
<!-- n___odom_slip_simulator&#45;&gt;t___odom -->
<g id="edge21" class="edge">
<title>n___odom_slip_simulator&#45;&gt;t___odom</title>
<g id="a_edge21"><a xlink:title="Publisher&#10;node_name: /odom_slip_simulator&#10;topic_name: /odom&#10;QoS settings&#10;&#45; reliability: reliable&#10;&#45; durability: volatile&#10;&#45; lifespan: 9223372036854775807 ns&#10;&#45; deadline: 9223372036854775807 ns&#10;&#45; liveliness: automatic&#10;&#45; liveliness_lease_duration: 9223372036854775807 ns&#10;&#45; avoid_ros_namespace_conventions: False">
<path fill="none" stroke="black" d="M1367.83,-126C1419.34,-126 1477.86,-126 1515.49,-126"/>
<polygon fill="black" stroke="black" points="1515.53,-129.5 1525.53,-126 1515.53,-122.5 1515.53,-129.5"/>
</a>
</g>
</g>
<!-- n_n__tf -->
<g id="node24" class="node">
<title>n_n__tf</title>
<g id="a_node24"><a xlink:href="topic_3A__tf" xlink:title="topic:/tf">
<polygon fill="none" stroke="black" points="1582.76,-198 1532.76,-198 1528.76,-194 1528.76,-162 1578.76,-162 1582.76,-166 1582.76,-198"/>
<polyline fill="none" stroke="black" points="1578.76,-194 1528.76,-194 "/>
<polyline fill="none" stroke="black" points="1578.76,-194 1578.76,-162 "/>
<polyline fill="none" stroke="black" points="1578.76,-194 1582.76,-198 "/>
<text text-anchor="middle" x="1555.76" y="-176.3" font-family="Times,serif" font-size="14.00">/tf</text>
</a>
</g>
</g>
<!-- n___odom_slip_simulator&#45;&gt;n_n__tf -->
<g id="edge22" class="edge">
<title>n___odom_slip_simulator&#45;&gt;n_n__tf</title>
<path fill="none" stroke="black" d="M1332.68,-139.28C1391.61,-150.09 1472.33,-164.89 1518.46,-173.34"/>
<polygon fill="black" stroke="black" points="1518.12,-176.84 1528.59,-175.2 1519.38,-169.96 1518.12,-176.84"/>
</g>
<!-- t___ground_truth__tf -->
<g id="node5" class="node">
<title>t___ground_truth__tf</title>
<g id="a_node5"><a xlink:href="topic_3A__ground_truth__tf" xlink:title="topic:/ground_truth/tf">
<polygon fill="none" stroke="black" points="1069.76,-197 938.76,-197 938.76,-161 1069.76,-161 1069.76,-197"/>
<text text-anchor="middle" x="1004.26" y="-175.3" font-family="Times,serif" font-size="14.00">/ground_truth/tf</text>
</a>
</g>
</g>
<!-- t___model__moving_obstacle_3__cmd_vel -->
<g id="node6" class="node">
<title>t___model__moving_obstacle_3__cmd_vel</title>
<g id="a_node6"><a xlink:href="topic_3A__model__moving_obstacle_3__cmd_vel" xlink:title="topic:/model/moving_obstacle_3/cmd_vel">
<polygon fill="none" stroke="black" points="1688.76,-419 1422.76,-419 1422.76,-383 1688.76,-383 1688.76,-419"/>
<text text-anchor="middle" x="1555.76" y="-397.3" font-family="Times,serif" font-size="14.00">/model/moving_obstacle_3/cmd_vel</text>
</a>
</g>
</g>
<!-- n___m1_gazebo_bridge_core -->
<g id="node7" class="node">
<title>n___m1_gazebo_bridge_core</title>
<g id="a_node7"><a xlink:href="__m1_gazebo_bridge_core" xlink:title="/m1_gazebo_bridge_core">
<ellipse fill="none" stroke="black" cx="774.62" cy="-293" rx="124.28" ry="18"/>
<text text-anchor="middle" x="774.62" y="-289.3" font-family="Times,serif" font-size="14.00">/m1_gazebo_bridge_core</text>
</a>
</g>
</g>
<!-- t___model__moving_obstacle_3__cmd_vel&#45;&gt;n___m1_gazebo_bridge_core -->
<g id="edge3" class="edge">
<title>t___model__moving_obstacle_3__cmd_vel&#45;&gt;n___m1_gazebo_bridge_core</title>
<g id="a_edge3"><a xlink:title="Subscription&#10;node_name: /m1_gazebo_bridge_core&#10;topic_name: /model/moving_obstacle_3/cmd_vel&#10;QoS settings&#10;&#45; reliability: reliable&#10;&#45; durability: volatile&#10;&#45; lifespan: 9223372036854775807 ns&#10;&#45; deadline: 9223372036854775807 ns&#10;&#45; liveliness: automatic&#10;&#45; liveliness_lease_duration: 9223372036854775807 ns&#10;&#45; avoid_ros_namespace_conventions: False">
<path fill="none" stroke="black" d="M1439.49,-419.01C1308.32,-434.99 1089.42,-447.83 912.76,-390 868.55,-375.53 826.2,-341.44 800.54,-317.79"/>
<polygon fill="black" stroke="black" points="802.82,-315.12 793.14,-310.82 798.02,-320.22 802.82,-315.12"/>
</a>
</g>
</g>
<!-- n___m1_gazebo_bridge_core&#45;&gt;t___ground_truth__odom -->
<g id="edge25" class="edge">
<title>n___m1_gazebo_bridge_core&#45;&gt;t___ground_truth__odom</title>
<g id="a_edge25"><a xlink:title="Publisher&#10;node_name: /m1_gazebo_bridge_core&#10;topic_name: /ground_truth/odom&#10;QoS settings&#10;&#45; reliability: reliable&#10;&#45; durability: volatile&#10;&#45; lifespan: 9223372036854775807 ns&#10;&#45; deadline: 9223372036854775807 ns&#10;&#45; liveliness: automatic&#10;&#45; liveliness_lease_duration: 9223372036854775807 ns&#10;&#45; avoid_ros_namespace_conventions: False">
<path fill="none" stroke="black" d="M788.23,-275C810.14,-245.07 858.14,-185.08 912.76,-152 915.41,-150.4 918.16,-148.88 920.98,-147.45"/>
<polygon fill="black" stroke="black" points="922.61,-150.55 930.21,-143.17 919.66,-144.2 922.61,-150.55"/>
</a>
</g>
</g>
<!-- n___m1_gazebo_bridge_core&#45;&gt;t___ground_truth__tf -->
<g id="edge26" class="edge">
<title>n___m1_gazebo_bridge_core&#45;&gt;t___ground_truth__tf</title>
<g id="a_edge26"><a xlink:title="Publisher&#10;node_name: /m1_gazebo_bridge_core&#10;topic_name: /ground_truth/tf&#10;QoS settings&#10;&#45; reliability: reliable&#10;&#45; durability: volatile&#10;&#45; lifespan: 9223372036854775807 ns&#10;&#45; deadline: 9223372036854775807 ns&#10;&#45; liveliness: automatic&#10;&#45; liveliness_lease_duration: 9223372036854775807 ns&#10;&#45; avoid_ros_namespace_conventions: False">
<path fill="none" stroke="black" d="M799.24,-275.15C825.69,-255.86 870.42,-225.29 912.76,-206 918.01,-203.6 923.54,-201.36 929.16,-199.26"/>
<polygon fill="black" stroke="black" points="930.42,-202.53 938.67,-195.88 928.08,-195.93 930.42,-202.53"/>
</a>
</g>
</g>
<!-- t___m1__gazebo_dynamic_tf -->
<g id="node15" class="node">
<title>t___m1__gazebo_dynamic_tf</title>
<g id="a_node15"><a xlink:href="topic_3A__m1__gazebo_dynamic_tf" xlink:title="topic:/m1/gazebo_dynamic_tf">
<polygon fill="none" stroke="black" points="1095.76,-381 912.76,-381 912.76,-345 1095.76,-345 1095.76,-381"/>
<text text-anchor="middle" x="1004.26" y="-359.3" font-family="Times,serif" font-size="14.00">/m1/gazebo_dynamic_tf</text>
</a>
</g>
</g>
<!-- n___m1_gazebo_bridge_core&#45;&gt;t___m1__gazebo_dynamic_tf -->
<g id="edge27" class="edge">
<title>n___m1_gazebo_bridge_core&#45;&gt;t___m1__gazebo_dynamic_tf</title>
<g id="a_edge27"><a xlink:title="Publisher&#10;node_name: /m1_gazebo_bridge_core&#10;topic_name: /m1/gazebo_dynamic_tf&#10;QoS settings&#10;&#45; reliability: reliable&#10;&#45; durability: volatile&#10;&#45; lifespan: 9223372036854775807 ns&#10;&#45; deadline: 9223372036854775807 ns&#10;&#45; liveliness: automatic&#10;&#45; liveliness_lease_duration: 9223372036854775807 ns&#10;&#45; avoid_ros_namespace_conventions: False">
<path fill="none" stroke="black" d="M828.42,-309.24C859.97,-318.94 900.42,-331.38 934.46,-341.84"/>
<polygon fill="black" stroke="black" points="933.75,-345.29 944.34,-344.88 935.81,-338.6 933.75,-345.29"/>
</a>
</g>
</g>
<!-- t___scan_front -->
<g id="node8" class="node">
<title>t___scan_front</title>
<g id="a_node8"><a xlink:href="topic_3A__scan_front" xlink:title="topic:/scan_front">
<polygon fill="none" stroke="black" points="1603.26,-90 1508.26,-90 1508.26,-54 1603.26,-54 1603.26,-90"/>
<text text-anchor="middle" x="1555.76" y="-68.3" font-family="Times,serif" font-size="14.00">/scan_front</text>
</a>
</g>
</g>
<!-- n___m1_dual_laser_merger -->
<g id="node9" class="node">
<title>n___m1_dual_laser_merger</title>
<g id="a_node9"><a xlink:href="__m1_dual_laser_merger" xlink:title="/m1_dual_laser_merger">
<ellipse fill="none" stroke="black" cx="1821.26" cy="-180" rx="118.5" ry="18"/>
<text text-anchor="middle" x="1821.26" y="-176.3" font-family="Times,serif" font-size="14.00">/m1_dual_laser_merger</text>
</a>
</g>
</g>
<!-- t___scan_front&#45;&gt;n___m1_dual_laser_merger -->
<g id="edge4" class="edge">
<title>t___scan_front&#45;&gt;n___m1_dual_laser_merger</title>
<g id="a_edge4"><a xlink:title="Subscription&#10;node_name: /m1_dual_laser_merger&#10;topic_name: /scan_front&#10;QoS settings&#10;&#45; reliability: best_effort&#10;&#45; durability: volatile&#10;&#45; lifespan: 9223372036854775807 ns&#10;&#45; deadline: 9223372036854775807 ns&#10;&#45; liveliness: automatic&#10;&#45; liveliness_lease_duration: 9223372036854775807 ns&#10;&#45; avoid_ros_namespace_conventions: False">
<path fill="none" stroke="black" d="M1603.41,-77.47C1629.21,-81.5 1661.46,-88.2 1688.76,-99 1725.27,-113.45 1763.04,-137.88 1788.68,-156.13"/>
<polygon fill="black" stroke="black" points="1786.74,-159.05 1796.89,-162.07 1790.84,-153.37 1786.74,-159.05"/>
</a>
</g>
</g>
<!-- t___scan_merged_cloud -->
<g id="node17" class="node">
<title>t___scan_merged_cloud</title>
<g id="a_node17"><a xlink:href="topic_3A__scan_merged_cloud" xlink:title="topic:/scan_merged_cloud">
<polygon fill="none" stroke="black" points="2113.76,-198 1953.76,-198 1953.76,-162 2113.76,-162 2113.76,-198"/>
<text text-anchor="middle" x="2033.76" y="-176.3" font-family="Times,serif" font-size="14.00">/scan_merged_cloud</text>
</a>
</g>
</g>
<!-- n___m1_dual_laser_merger&#45;&gt;t___scan_merged_cloud -->
<g id="edge15" class="edge">
<title>n___m1_dual_laser_merger&#45;&gt;t___scan_merged_cloud</title>
<g id="a_edge15"><a xlink:title="Publisher&#10;node_name: /m1_dual_laser_merger&#10;topic_name: /scan_merged_cloud&#10;QoS settings&#10;&#45; reliability: best_effort&#10;&#45; durability: volatile&#10;&#45; lifespan: 9223372036854775807 ns&#10;&#45; deadline: 9223372036854775807 ns&#10;&#45; liveliness: automatic&#10;&#45; liveliness_lease_duration: 9223372036854775807 ns&#10;&#45; avoid_ros_namespace_conventions: False">
<path fill="none" stroke="black" d="M1939.82,-180C1940.97,-180 1942.12,-180 1943.27,-180"/>
<polygon fill="black" stroke="black" points="1943.53,-183.5 1953.53,-180 1943.53,-176.5 1943.53,-183.5"/>
</a>
</g>
</g>
<!-- t___scan -->
<g id="node19" class="node">
<title>t___scan</title>
<g id="a_node19"><a xlink:href="topic_3A__scan" xlink:title="topic:/scan">
<polygon fill="none" stroke="black" points="2060.76,-361 2006.76,-361 2006.76,-325 2060.76,-325 2060.76,-361"/>
<text text-anchor="middle" x="2033.76" y="-339.3" font-family="Times,serif" font-size="14.00">/scan</text>
</a>
</g>
</g>
<!-- n___m1_dual_laser_merger&#45;&gt;t___scan -->
<g id="edge16" class="edge">
<title>n___m1_dual_laser_merger&#45;&gt;t___scan</title>
<g id="a_edge16"><a xlink:title="Publisher&#10;node_name: /m1_dual_laser_merger&#10;topic_name: /scan&#10;QoS settings&#10;&#45; reliability: best_effort&#10;&#45; durability: volatile&#10;&#45; lifespan: 9223372036854775807 ns&#10;&#45; deadline: 9223372036854775807 ns&#10;&#45; liveliness: automatic&#10;&#45; liveliness_lease_duration: 9223372036854775807 ns&#10;&#45; avoid_ros_namespace_conventions: False">
<path fill="none" stroke="black" d="M1845.19,-197.75C1882.95,-226.99 1958.29,-285.34 2001.11,-318.49"/>
<polygon fill="black" stroke="black" points="1999.17,-321.41 2009.22,-324.77 2003.45,-315.88 1999.17,-321.41"/>
</a>
</g>
</g>
<!-- n___m1_dual_laser_merger&#45;&gt;n_n__tf -->
<g id="edge17" class="edge">
<title>n___m1_dual_laser_merger&#45;&gt;n_n__tf</title>
<path fill="none" stroke="black" d="M1711.17,-186.66C1669.04,-187 1623.72,-186.39 1593.15,-184.83"/>
<polygon fill="black" stroke="black" points="1593.17,-181.33 1582.99,-184.24 1592.77,-188.32 1593.17,-181.33"/>
</g>
<!-- t___scan_rear -->
<g id="node10" class="node">
<title>t___scan_rear</title>
<g id="a_node10"><a xlink:href="topic_3A__scan_rear" xlink:title="topic:/scan_rear">
<polygon fill="none" stroke="black" points="1600.76,-36 1510.76,-36 1510.76,0 1600.76,0 1600.76,-36"/>
<text text-anchor="middle" x="1555.76" y="-14.3" font-family="Times,serif" font-size="14.00">/scan_rear</text>
</a>
</g>
</g>
<!-- t___scan_rear&#45;&gt;n___m1_dual_laser_merger -->
<g id="edge5" class="edge">
<title>t___scan_rear&#45;&gt;n___m1_dual_laser_merger</title>
<g id="a_edge5"><a xlink:title="Subscription&#10;node_name: /m1_dual_laser_merger&#10;topic_name: /scan_rear&#10;QoS settings&#10;&#45; reliability: best_effort&#10;&#45; durability: volatile&#10;&#45; lifespan: 9223372036854775807 ns&#10;&#45; deadline: 9223372036854775807 ns&#10;&#45; liveliness: automatic&#10;&#45; liveliness_lease_duration: 9223372036854775807 ns&#10;&#45; avoid_ros_namespace_conventions: False">
<path fill="none" stroke="black" d="M1600.9,-20.48C1627.67,-23.53 1661.77,-30.25 1688.76,-45 1737.57,-71.68 1779.55,-122.46 1802.24,-153.57"/>
<polygon fill="black" stroke="black" points="1799.45,-155.69 1808.12,-161.79 1805.14,-151.62 1799.45,-155.69"/>
</a>
</g>
</g>
<!-- t___model__moving_obstacle_1__cmd_vel -->
<g id="node11" class="node">
<title>t___model__moving_obstacle_1__cmd_vel</title>
<g id="a_node11"><a xlink:href="topic_3A__model__moving_obstacle_1__cmd_vel" xlink:title="topic:/model/moving_obstacle_1/cmd_vel">
<polygon fill="none" stroke="black" points="1688.76,-364 1422.76,-364 1422.76,-328 1688.76,-328 1688.76,-364"/>
<text text-anchor="middle" x="1555.76" y="-342.3" font-family="Times,serif" font-size="14.00">/model/moving_obstacle_1/cmd_vel</text>
</a>
</g>
</g>
<!-- t___model__moving_obstacle_1__cmd_vel&#45;&gt;n___m1_gazebo_bridge_core -->
<g id="edge6" class="edge">
<title>t___model__moving_obstacle_1__cmd_vel&#45;&gt;n___m1_gazebo_bridge_core</title>
<g id="a_edge6"><a xlink:title="Subscription&#10;node_name: /m1_gazebo_bridge_core&#10;topic_name: /model/moving_obstacle_1/cmd_vel&#10;QoS settings&#10;&#45; reliability: reliable&#10;&#45; durability: volatile&#10;&#45; lifespan: 9223372036854775807 ns&#10;&#45; deadline: 9223372036854775807 ns&#10;&#45; liveliness: automatic&#10;&#45; liveliness_lease_duration: 9223372036854775807 ns&#10;&#45; avoid_ros_namespace_conventions: False">
<path fill="none" stroke="black" d="M1422.65,-336.94C1417.96,-336.62 1413.32,-336.31 1408.76,-336 1188.33,-321.12 1133.15,-318.37 912.76,-303 907.25,-302.62 901.62,-302.22 895.93,-301.82"/>
<polygon fill="black" stroke="black" points="895.87,-298.3 885.65,-301.08 895.37,-305.29 895.87,-298.3"/>
</a>
</g>
</g>
<!-- t___joint_states -->
<g id="node12" class="node">
<title>t___joint_states</title>
<g id="a_node12"><a xlink:href="topic_3A__joint_states" xlink:title="topic:/joint_states">
<polygon fill="none" stroke="black" points="1056.26,-251 952.26,-251 952.26,-215 1056.26,-215 1056.26,-251"/>
<text text-anchor="middle" x="1004.26" y="-229.3" font-family="Times,serif" font-size="14.00">/joint_states</text>
</a>
</g>
</g>
<!-- n___robot_state_publisher -->
<g id="node13" class="node">
<title>n___robot_state_publisher</title>
<g id="a_node13"><a xlink:href="__robot_state_publisher" xlink:title="/robot_state_publisher">
<ellipse fill="none" stroke="black" cx="1259.26" cy="-207" rx="114.5" ry="18"/>
<text text-anchor="middle" x="1259.26" y="-203.3" font-family="Times,serif" font-size="14.00">/robot_state_publisher</text>
</a>
</g>
</g>
<!-- t___joint_states&#45;&gt;n___robot_state_publisher -->
<g id="edge7" class="edge">
<title>t___joint_states&#45;&gt;n___robot_state_publisher</title>
<g id="a_edge7"><a xlink:title="Subscription&#10;node_name: /robot_state_publisher&#10;topic_name: /joint_states&#10;QoS settings&#10;&#45; reliability: best_effort&#10;&#45; durability: volatile&#10;&#45; lifespan: 9223372036854775807 ns&#10;&#45; deadline: 9223372036854775807 ns&#10;&#45; liveliness: automatic&#10;&#45; liveliness_lease_duration: 9223372036854775807 ns&#10;&#45; avoid_ros_namespace_conventions: False">
<path fill="none" stroke="black" d="M1056.46,-227.74C1084.13,-224.89 1119.37,-221.27 1152.62,-217.86"/>
<polygon fill="black" stroke="black" points="1153.28,-221.31 1162.87,-216.8 1152.57,-214.34 1153.28,-221.31"/>
</a>
</g>
</g>
<!-- t___robot_description -->
<g id="node23" class="node">
<title>t___robot_description</title>
<g id="a_node23"><a xlink:href="topic_3A__robot_description" xlink:title="topic:/robot_description">
<polygon fill="none" stroke="black" points="1628.76,-252 1482.76,-252 1482.76,-216 1628.76,-216 1628.76,-252"/>
<text text-anchor="middle" x="1555.76" y="-230.3" font-family="Times,serif" font-size="14.00">/robot_description</text>
</a>
</g>
</g>
<!-- n___robot_state_publisher&#45;&gt;t___robot_description -->
<g id="edge18" class="edge">
<title>n___robot_state_publisher&#45;&gt;t___robot_description</title>
<g id="a_edge18"><a xlink:title="Publisher&#10;node_name: /robot_state_publisher&#10;topic_name: /robot_description&#10;QoS settings&#10;&#45; reliability: reliable&#10;&#45; durability: transient_local&#10;&#45; lifespan: 9223372036854775807 ns&#10;&#45; deadline: 9223372036854775807 ns&#10;&#45; liveliness: automatic&#10;&#45; liveliness_lease_duration: 9223372036854775807 ns&#10;&#45; avoid_ros_namespace_conventions: False">
<path fill="none" stroke="black" d="M1358.73,-216.03C1395.56,-219.4 1436.98,-223.2 1472.23,-226.43"/>
<polygon fill="black" stroke="black" points="1472.19,-229.95 1482.47,-227.37 1472.83,-222.97 1472.19,-229.95"/>
</a>
</g>
</g>
<!-- n___robot_state_publisher&#45;&gt;n_n__tf -->
<g id="edge19" class="edge">
<title>n___robot_state_publisher&#45;&gt;n_n__tf</title>
<path fill="none" stroke="black" d="M1338.02,-193.84C1396.39,-187.18 1473.67,-180.57 1518.43,-178.71"/>
<polygon fill="black" stroke="black" points="1518.67,-182.2 1528.54,-178.35 1518.42,-175.2 1518.67,-182.2"/>
</g>
<!-- n___robot_state_publisher&#45;&gt;n_n__tf -->
<g id="edge20" class="edge">
<title>n___robot_state_publisher&#45;&gt;n_n__tf</title>
<path fill="none" stroke="black" d="M1371.6,-203.36C1423.48,-199.14 1481.71,-193.15 1518.3,-187.97"/>
<polygon fill="black" stroke="black" points="1519.09,-191.39 1528.47,-186.47 1518.07,-184.47 1519.09,-191.39"/>
</g>
<!-- t___model__moving_obstacle_2__cmd_vel -->
<g id="node14" class="node">
<title>t___model__moving_obstacle_2__cmd_vel</title>
<g id="a_node14"><a xlink:href="topic_3A__model__moving_obstacle_2__cmd_vel" xlink:title="topic:/model/moving_obstacle_2/cmd_vel">
<polygon fill="none" stroke="black" points="1688.76,-309 1422.76,-309 1422.76,-273 1688.76,-273 1688.76,-309"/>
<text text-anchor="middle" x="1555.76" y="-287.3" font-family="Times,serif" font-size="14.00">/model/moving_obstacle_2/cmd_vel</text>
</a>
</g>
</g>
<!-- t___model__moving_obstacle_2__cmd_vel&#45;&gt;n___m1_gazebo_bridge_core -->
<g id="edge8" class="edge">
<title>t___model__moving_obstacle_2__cmd_vel&#45;&gt;n___m1_gazebo_bridge_core</title>
<g id="a_edge8"><a xlink:title="Subscription&#10;node_name: /m1_gazebo_bridge_core&#10;topic_name: /model/moving_obstacle_2/cmd_vel&#10;QoS settings&#10;&#45; reliability: reliable&#10;&#45; durability: volatile&#10;&#45; lifespan: 9223372036854775807 ns&#10;&#45; deadline: 9223372036854775807 ns&#10;&#45; liveliness: automatic&#10;&#45; liveliness_lease_duration: 9223372036854775807 ns&#10;&#45; avoid_ros_namespace_conventions: False">
<path fill="none" stroke="black" d="M1422.43,-291.34C1279.42,-291.71 1052.78,-292.29 909.26,-292.66"/>
<polygon fill="black" stroke="black" points="909.07,-289.16 899.08,-292.68 909.08,-296.16 909.07,-289.16"/>
</a>
</g>
</g>
<!-- n___dynamic_obstacle_mover -->
<g id="node16" class="node">
<title>n___dynamic_obstacle_mover</title>
<g id="a_node16"><a xlink:href="__dynamic_obstacle_mover" xlink:title="/dynamic_obstacle_mover">
<ellipse fill="none" stroke="black" cx="1259.26" cy="-363" rx="129.5" ry="18"/>
<text text-anchor="middle" x="1259.26" y="-359.3" font-family="Times,serif" font-size="14.00">/dynamic_obstacle_mover</text>
</a>
</g>
</g>
<!-- t___m1__gazebo_dynamic_tf&#45;&gt;n___dynamic_obstacle_mover -->
<g id="edge9" class="edge">
<title>t___m1__gazebo_dynamic_tf&#45;&gt;n___dynamic_obstacle_mover</title>
<g id="a_edge9"><a xlink:title="Subscription&#10;node_name: /dynamic_obstacle_mover&#10;topic_name: /m1/gazebo_dynamic_tf&#10;QoS settings&#10;&#45; reliability: reliable&#10;&#45; durability: volatile&#10;&#45; lifespan: 9223372036854775807 ns&#10;&#45; deadline: 9223372036854775807 ns&#10;&#45; liveliness: automatic&#10;&#45; liveliness_lease_duration: 9223372036854775807 ns&#10;&#45; avoid_ros_namespace_conventions: False">
<path fill="none" stroke="black" d="M1095.88,-363C1103.56,-363 1111.43,-363 1119.36,-363"/>
<polygon fill="black" stroke="black" points="1119.44,-366.5 1129.44,-363 1119.44,-359.5 1119.44,-366.5"/>
</a>
</g>
</g>
<!-- n___dynamic_obstacle_mover&#45;&gt;t___m1__dynamic_obstacles -->
<g id="edge28" class="edge">
<title>n___dynamic_obstacle_mover&#45;&gt;t___m1__dynamic_obstacles</title>
<g id="a_edge28"><a xlink:title="Publisher&#10;node_name: /dynamic_obstacle_mover&#10;topic_name: /m1/dynamic_obstacles&#10;QoS settings&#10;&#45; reliability: reliable&#10;&#45; durability: volatile&#10;&#45; lifespan: 9223372036854775807 ns&#10;&#45; deadline: 9223372036854775807 ns&#10;&#45; liveliness: automatic&#10;&#45; liveliness_lease_duration: 9223372036854775807 ns&#10;&#45; avoid_ros_namespace_conventions: False">
<path fill="none" stroke="black" d="M1218.44,-380.22C1136.95,-413.85 944.58,-485 775.62,-485 535.98,-485 535.98,-485 535.98,-485 408.1,-485 261.94,-456.71 173.35,-436.35"/>
<polygon fill="black" stroke="black" points="173.9,-432.89 163.37,-434.04 172.32,-439.71 173.9,-432.89"/>
</a>
</g>
</g>
<!-- n___dynamic_obstacle_mover&#45;&gt;t___model__moving_obstacle_3__cmd_vel -->
<g id="edge29" class="edge">
<title>n___dynamic_obstacle_mover&#45;&gt;t___model__moving_obstacle_3__cmd_vel</title>
<g id="a_edge29"><a xlink:title="Publisher&#10;node_name: /dynamic_obstacle_mover&#10;topic_name: /model/moving_obstacle_3/cmd_vel&#10;QoS settings&#10;&#45; reliability: reliable&#10;&#45; durability: volatile&#10;&#45; lifespan: 9223372036854775807 ns&#10;&#45; deadline: 9223372036854775807 ns&#10;&#45; liveliness: automatic&#10;&#45; liveliness_lease_duration: 9223372036854775807 ns&#10;&#45; avoid_ros_namespace_conventions: False">
<path fill="none" stroke="black" d="M1354.65,-375.18C1373.15,-377.57 1392.93,-380.12 1412.58,-382.65"/>
<polygon fill="black" stroke="black" points="1412.16,-386.13 1422.53,-383.94 1413.06,-379.19 1412.16,-386.13"/>
</a>
</g>
</g>
<!-- n___dynamic_obstacle_mover&#45;&gt;t___model__moving_obstacle_1__cmd_vel -->
<g id="edge30" class="edge">
<title>n___dynamic_obstacle_mover&#45;&gt;t___model__moving_obstacle_1__cmd_vel</title>
<g id="a_edge30"><a xlink:title="Publisher&#10;node_name: /dynamic_obstacle_mover&#10;topic_name: /model/moving_obstacle_1/cmd_vel&#10;QoS settings&#10;&#45; reliability: reliable&#10;&#45; durability: volatile&#10;&#45; lifespan: 9223372036854775807 ns&#10;&#45; deadline: 9223372036854775807 ns&#10;&#45; liveliness: automatic&#10;&#45; liveliness_lease_duration: 9223372036854775807 ns&#10;&#45; avoid_ros_namespace_conventions: False">
<path fill="none" stroke="black" d="M1379.19,-356.13C1390.07,-355.51 1401.16,-354.87 1412.22,-354.23"/>
<polygon fill="black" stroke="black" points="1412.58,-357.71 1422.36,-353.64 1412.17,-350.73 1412.58,-357.71"/>
</a>
</g>
</g>
<!-- n___dynamic_obstacle_mover&#45;&gt;t___model__moving_obstacle_2__cmd_vel -->
<g id="edge31" class="edge">
<title>n___dynamic_obstacle_mover&#45;&gt;t___model__moving_obstacle_2__cmd_vel</title>
<g id="a_edge31"><a xlink:title="Publisher&#10;node_name: /dynamic_obstacle_mover&#10;topic_name: /model/moving_obstacle_2/cmd_vel&#10;QoS settings&#10;&#45; reliability: reliable&#10;&#45; durability: volatile&#10;&#45; lifespan: 9223372036854775807 ns&#10;&#45; deadline: 9223372036854775807 ns&#10;&#45; liveliness: automatic&#10;&#45; liveliness_lease_duration: 9223372036854775807 ns&#10;&#45; avoid_ros_namespace_conventions: False">
<path fill="none" stroke="black" d="M1316.84,-346.85C1347.98,-338.17 1387.38,-327.53 1422.76,-319 1433.68,-316.37 1445.14,-313.74 1456.55,-311.2"/>
<polygon fill="black" stroke="black" points="1457.55,-314.57 1466.56,-309 1456.04,-307.73 1457.55,-314.57"/>
</a>
</g>
</g>
<!-- t___cmd_vel&#45;&gt;n___m1_gazebo_bridge_core -->
<g id="edge10" class="edge">
<title>t___cmd_vel&#45;&gt;n___m1_gazebo_bridge_core</title>
<g id="a_edge10"><a xlink:title="Subscription&#10;node_name: /m1_gazebo_bridge_core&#10;topic_name: /cmd_vel&#10;QoS settings&#10;&#45; reliability: reliable&#10;&#45; durability: volatile&#10;&#45; lifespan: 9223372036854775807 ns&#10;&#45; deadline: 9223372036854775807 ns&#10;&#45; liveliness: automatic&#10;&#45; liveliness_lease_duration: 9223372036854775807 ns&#10;&#45; avoid_ros_namespace_conventions: False">
<path fill="none" stroke="black" d="M576.63,-293C594.56,-293 617.06,-293 640.37,-293"/>
<polygon fill="black" stroke="black" points="640.4,-296.5 650.4,-293 640.4,-289.5 640.4,-296.5"/>
</a>
</g>
</g>
<!-- t___scan&#45;&gt;n___imperative_controller -->
<g id="edge11" class="edge">
<title>t___scan&#45;&gt;n___imperative_controller</title>
<g id="a_edge11"><a xlink:title="Subscription&#10;node_name: /imperative_controller&#10;topic_name: /scan&#10;QoS settings&#10;&#45; reliability: best_effort&#10;&#45; durability: volatile&#10;&#45; lifespan: 9223372036854775807 ns&#10;&#45; deadline: 9223372036854775807 ns&#10;&#45; liveliness: automatic&#10;&#45; liveliness_lease_duration: 9223372036854775807 ns&#10;&#45; avoid_ros_namespace_conventions: False">
<path fill="none" stroke="black" d="M2006.62,-352.88C1935.5,-378.84 1732.07,-447 1556.76,-447 773.62,-447 773.62,-447 773.62,-447 623.99,-447 583.19,-462.06 437.48,-428 407.77,-421.06 376.2,-407.62 352,-395.89"/>
<polygon fill="black" stroke="black" points="353.29,-392.63 342.77,-391.33 350.18,-398.9 353.29,-392.63"/>
</a>
</g>
</g>
<!-- t___odom&#45;&gt;n___imperative_controller -->
<g id="edge12" class="edge">
<title>t___odom&#45;&gt;n___imperative_controller</title>
<g id="a_edge12"><a xlink:title="Subscription&#10;node_name: /imperative_controller&#10;topic_name: /odom&#10;QoS settings&#10;&#45; reliability: reliable&#10;&#45; durability: volatile&#10;&#45; lifespan: 9223372036854775807 ns&#10;&#45; deadline: 9223372036854775807 ns&#10;&#45; liveliness: automatic&#10;&#45; liveliness_lease_duration: 9223372036854775807 ns&#10;&#45; avoid_ros_namespace_conventions: False">
<path fill="none" stroke="black" d="M1525.57,-119.41C1496.22,-113.07 1449.59,-103.77 1408.76,-99 1230.42,-78.18 1184.81,-79 1005.26,-79 773.62,-79 773.62,-79 773.62,-79 574.05,-79 391.22,-276.43 331.31,-348.26"/>
<polygon fill="black" stroke="black" points="328.6,-346.05 324.94,-355.99 334,-350.5 328.6,-346.05"/>
</a>
</g>
</g>
<!-- n_n__tf&#45;&gt;n___m1_dual_laser_merger -->
<g id="edge13" class="edge">
<title>n_n__tf&#45;&gt;n___m1_dual_laser_merger</title>
<path fill="none" stroke="black" d="M1582.99,-180C1609.02,-180 1650.92,-180 1692.32,-180"/>
<polygon fill="black" stroke="black" points="1692.55,-183.5 1702.55,-180 1692.55,-176.5 1692.55,-183.5"/>
</g>
<!-- n_n__tf&#45;&gt;n___m1_dual_laser_merger -->
<g id="edge14" class="edge">
<title>n_n__tf&#45;&gt;n___m1_dual_laser_merger</title>
<path fill="none" stroke="black" d="M1582.99,-175.76C1610.82,-173.91 1656.8,-173.09 1700.9,-173.28"/>
<polygon fill="black" stroke="black" points="1701.14,-176.78 1711.17,-173.34 1701.19,-169.78 1701.14,-176.78"/>
</g>
<!-- n___m1_gazebo_bridge_dual_scan -->
<g id="node25" class="node">
<title>n___m1_gazebo_bridge_dual_scan</title>
<g id="a_node25"><a xlink:href="__m1_gazebo_bridge_dual_scan" xlink:title="/m1_gazebo_bridge_dual_scan">
<ellipse fill="none" stroke="black" cx="1259.26" cy="-23" rx="149.5" ry="18"/>
<text text-anchor="middle" x="1259.26" y="-19.3" font-family="Times,serif" font-size="14.00">/m1_gazebo_bridge_dual_scan</text>
</a>
</g>
</g>
<!-- n___m1_gazebo_bridge_dual_scan&#45;&gt;t___scan_front -->
<g id="edge23" class="edge">
<title>n___m1_gazebo_bridge_dual_scan&#45;&gt;t___scan_front</title>
<g id="a_edge23"><a xlink:title="Publisher&#10;node_name: /m1_gazebo_bridge_dual_scan&#10;topic_name: /scan_front&#10;QoS settings&#10;&#45; reliability: reliable&#10;&#45; durability: volatile&#10;&#45; lifespan: 9223372036854775807 ns&#10;&#45; deadline: 9223372036854775807 ns&#10;&#45; liveliness: automatic&#10;&#45; liveliness_lease_duration: 9223372036854775807 ns&#10;&#45; avoid_ros_namespace_conventions: False">
<path fill="none" stroke="black" d="M1347.82,-37.57C1396.48,-45.67 1455.61,-55.5 1498.18,-62.59"/>
<polygon fill="black" stroke="black" points="1497.65,-66.05 1508.09,-64.23 1498.8,-59.14 1497.65,-66.05"/>
</a>
</g>
</g>
<!-- n___m1_gazebo_bridge_dual_scan&#45;&gt;t___scan_rear -->
<g id="edge24" class="edge">
<title>n___m1_gazebo_bridge_dual_scan&#45;&gt;t___scan_rear</title>
<g id="a_edge24"><a xlink:title="Publisher&#10;node_name: /m1_gazebo_bridge_dual_scan&#10;topic_name: /scan_rear&#10;QoS settings&#10;&#45; reliability: reliable&#10;&#45; durability: volatile&#10;&#45; lifespan: 9223372036854775807 ns&#10;&#45; deadline: 9223372036854775807 ns&#10;&#45; liveliness: automatic&#10;&#45; liveliness_lease_duration: 9223372036854775807 ns&#10;&#45; avoid_ros_namespace_conventions: False">
<path fill="none" stroke="black" d="M1407.51,-20.5C1440.77,-19.94 1474.03,-19.37 1500.5,-18.92"/>
<polygon fill="black" stroke="black" points="1500.73,-22.42 1510.67,-18.75 1500.61,-15.42 1500.73,-22.42"/>
</a>
</g>
</g>
</g>
</svg>
