<?xml version="1.0" encoding="UTF-8" standalone="no"?>
<!DOCTYPE svg PUBLIC "-//W3C//DTD SVG 1.1//EN"
 "http://www.w3.org/Graphics/SVG/1.1/DTD/svg11.dtd">
<!-- Generated by graphviz version 2.43.0 (0)
 -->
<!-- Title: nav2_mppi_internal Pages: 1 -->
<svg width="2011pt" height="454pt"
 viewBox="0.00 0.00 2010.51 454.32" xmlns="http://www.w3.org/2000/svg" xmlns:xlink="http://www.w3.org/1999/xlink">
<g id="graph0" class="graph" transform="scale(1 1) rotate(0) translate(20.16 434.16)">
<title>nav2_mppi_internal</title>
<polygon fill="white" stroke="transparent" points="-20.16,20.16 -20.16,-434.16 1990.35,-434.16 1990.35,20.16 -20.16,20.16"/>
<text text-anchor="middle" x="985.1" y="-395.6" font-family="Noto Sans CJK SC" font-size="18.00">Nav2 MPPI：进程内算法流（不是 ROS 节点图）</text>
<!-- goal -->
<g id="node1" class="node">
<title>goal</title>
<ellipse fill="#fff1d6" stroke="#c98216" stroke-width="1.2" cx="643.11" cy="-368" rx="42.87" ry="18"/>
<text text-anchor="middle" x="643.11" y="-365.2" font-family="Noto Sans CJK SC" font-size="11.00">目标位姿</text>
</g>
<!-- navfn -->
<g id="node3" class="node">
<title>navfn</title>
<path fill="#ddebfa" stroke="#2f6fab" stroke-width="1.2" d="M877.61,-325C877.61,-325 815.61,-325 815.61,-325 809.61,-325 803.61,-319 803.61,-313 803.61,-313 803.61,-301 803.61,-301 803.61,-295 809.61,-289 815.61,-289 815.61,-289 877.61,-289 877.61,-289 883.61,-289 889.61,-295 889.61,-301 889.61,-301 889.61,-313 889.61,-313 889.61,-319 883.61,-325 877.61,-325"/>
<text text-anchor="middle" x="846.61" y="-310.2" font-family="Noto Sans CJK SC" font-size="11.00">NavFn</text>
<text text-anchor="middle" x="846.61" y="-298.2" font-family="Noto Sans CJK SC" font-size="11.00">搜索全局路径</text>
</g>
<!-- goal&#45;&gt;navfn -->
<g id="edge1" class="edge">
<title>goal&#45;&gt;navfn</title>
<path fill="none" stroke="#6b7280" d="M686.39,-368C746.3,-368 847.19,-368 847.19,-368 847.19,-368 847.19,-332.5 847.19,-332.5"/>
<polygon fill="#6b7280" stroke="#6b7280" points="849.71,-332.5 847.19,-325.3 844.67,-332.5 849.71,-332.5"/>
</g>
<!-- costmap_g -->
<g id="node2" class="node">
<title>costmap_g</title>
<ellipse fill="#fff1d6" stroke="#c98216" stroke-width="1.2" cx="643.11" cy="-302" rx="57.88" ry="18"/>
<text text-anchor="middle" x="643.11" y="-299.2" font-family="Noto Sans CJK SC" font-size="11.00">全局代价地图</text>
</g>
<!-- costmap_g&#45;&gt;navfn -->
<g id="edge2" class="edge">
<title>costmap_g&#45;&gt;navfn</title>
<path fill="none" stroke="#6b7280" d="M700.34,-304.5C700.34,-304.5 796.16,-304.5 796.16,-304.5"/>
<polygon fill="#6b7280" stroke="#6b7280" points="796.16,-307.02 803.36,-304.5 796.16,-301.98 796.16,-307.02"/>
</g>
<!-- path -->
<g id="node4" class="node">
<title>path</title>
<ellipse fill="#fff1d6" stroke="#c98216" stroke-width="1.2" cx="1048.11" cy="-307" rx="57.88" ry="18"/>
<text text-anchor="middle" x="1048.11" y="-304.2" font-family="Noto Sans CJK SC" font-size="11.00">参考全局路径</text>
</g>
<!-- navfn&#45;&gt;path -->
<g id="edge3" class="edge">
<title>navfn&#45;&gt;path</title>
<path fill="none" stroke="#6b7280" d="M889.84,-307C889.84,-307 982.85,-307 982.85,-307"/>
<polygon fill="#6b7280" stroke="#6b7280" points="982.85,-309.52 990.05,-307 982.85,-304.48 982.85,-309.52"/>
</g>
<!-- sampling -->
<g id="node12" class="node">
<title>sampling</title>
<path fill="#ddebfa" stroke="#2f6fab" stroke-width="1.2" d="M1311.11,-246C1311.11,-246 1216.11,-246 1216.11,-246 1210.11,-246 1204.11,-240 1204.11,-234 1204.11,-234 1204.11,-222 1204.11,-222 1204.11,-216 1210.11,-210 1216.11,-210 1216.11,-210 1311.11,-210 1311.11,-210 1317.11,-210 1323.11,-216 1323.11,-222 1323.11,-222 1323.11,-234 1323.11,-234 1323.11,-240 1317.11,-246 1311.11,-246"/>
<text text-anchor="middle" x="1263.61" y="-231.2" font-family="Noto Sans CJK SC" font-size="11.00">MPPI 采样 / rollout</text>
<text text-anchor="middle" x="1263.61" y="-219.2" font-family="Noto Sans CJK SC" font-size="11.00">控制序列 + 运动模型</text>
</g>
<!-- path&#45;&gt;sampling -->
<g id="edge11" class="edge">
<title>path&#45;&gt;sampling</title>
<path fill="none" stroke="#6b7280" d="M1048.19,-288.9C1048.19,-268.08 1048.19,-236.73 1048.19,-236.73 1048.19,-236.73 1196.69,-236.73 1196.69,-236.73"/>
<polygon fill="#6b7280" stroke="#6b7280" points="1196.69,-239.25 1203.89,-236.73 1196.69,-234.21 1196.69,-239.25"/>
</g>
<!-- critics -->
<g id="node13" class="node">
<title>critics</title>
<path fill="#fff0e8" stroke="#c98216" stroke-width="1.2" d="M1566.11,-226C1566.11,-226 1392.11,-226 1392.11,-226 1386.11,-226 1380.11,-220 1380.11,-214 1380.11,-214 1380.11,-178 1380.11,-178 1380.11,-172 1386.11,-166 1392.11,-166 1392.11,-166 1566.11,-166 1566.11,-166 1572.11,-166 1578.11,-172 1578.11,-178 1578.11,-178 1578.11,-214 1578.11,-214 1578.11,-220 1572.11,-226 1566.11,-226"/>
<text text-anchor="middle" x="1479.11" y="-211.2" font-family="Noto Sans CJK SC" font-size="11.00">critic 评分</text>
<text text-anchor="middle" x="1479.11" y="-199.2" font-family="Noto Sans CJK SC" font-size="11.00">Constraint / Cost / Goal / GoalAngle</text>
<text text-anchor="middle" x="1479.11" y="-187.2" font-family="Noto Sans CJK SC" font-size="11.00">PathAlign / PathFollow / PathAngle</text>
<text text-anchor="middle" x="1479.11" y="-175.2" font-family="Noto Sans CJK SC" font-size="11.00">PreferForward / Twirling</text>
</g>
<!-- path&#45;&gt;critics -->
<g id="edge15" class="edge">
<title>path&#45;&gt;critics</title>
<path fill="none" stroke="#6b7280" d="M1020.19,-290.94C1020.19,-261.35 1020.19,-201.23 1020.19,-201.23 1020.19,-201.23 1372.9,-201.23 1372.9,-201.23"/>
<polygon fill="#6b7280" stroke="#6b7280" points="1372.9,-203.75 1380.1,-201.23 1372.9,-198.71 1372.9,-203.75"/>
</g>
<!-- state -->
<g id="node5" class="node">
<title>state</title>
<ellipse fill="#fff1d6" stroke="#c98216" stroke-width="1.2" cx="63.06" cy="-202" rx="59.29" ry="25.41"/>
<text text-anchor="middle" x="63.06" y="-205.2" font-family="Noto Sans CJK SC" font-size="11.00">当前状态</text>
<text text-anchor="middle" x="63.06" y="-193.2" font-family="Noto Sans CJK SC" font-size="11.00">(/odom + TF)</text>
</g>
<!-- scope -->
<g id="node7" class="node">
<title>scope</title>
<path fill="#f3e8ff" stroke="#7e5aa6" stroke-width="1.2" d="M410.61,-192C410.61,-192 268.61,-192 268.61,-192 262.61,-192 256.61,-186 256.61,-180 256.61,-180 256.61,-156 256.61,-156 256.61,-150 262.61,-144 268.61,-144 268.61,-144 410.61,-144 410.61,-144 416.61,-144 422.61,-150 422.61,-156 422.61,-156 422.61,-180 422.61,-180 422.61,-186 416.61,-192 410.61,-192"/>
<text text-anchor="middle" x="339.61" y="-177.2" font-family="Noto Sans CJK SC" font-size="11.00">冻结 SCOPE</text>
<text text-anchor="middle" x="339.61" y="-165.2" font-family="Noto Sans CJK SC" font-size="11.00">0.5 s prediction + uncertainty</text>
<text text-anchor="middle" x="339.61" y="-153.2" font-family="Noto Sans CJK SC" font-size="11.00">（默认关闭）</text>
</g>
<!-- state&#45;&gt;scope -->
<g id="edge6" class="edge">
<title>state&#45;&gt;scope</title>
<path fill="none" stroke="#6b7280" d="M105.97,-184.27C105.97,-184.27 249.26,-184.27 249.26,-184.27"/>
<polygon fill="#6b7280" stroke="#6b7280" points="249.26,-186.79 256.46,-184.27 249.26,-181.75 249.26,-186.79"/>
<text text-anchor="middle" x="172.61" y="-190.8" font-family="Noto Sans CJK SC" font-size="9.00">运动补偿</text>
</g>
<!-- state&#45;&gt;sampling -->
<g id="edge12" class="edge">
<title>state&#45;&gt;sampling</title>
<path fill="none" stroke="#6b7280" d="M96.42,-223.09C96.42,-223.09 1196.71,-223.09 1196.71,-223.09"/>
<polygon fill="#6b7280" stroke="#6b7280" points="1196.71,-225.61 1203.91,-223.09 1196.71,-220.57 1196.71,-225.61"/>
</g>
<!-- scan_history -->
<g id="node6" class="node">
<title>scan_history</title>
<ellipse fill="#fff1d6" stroke="#c98216" stroke-width="1.2" cx="63.06" cy="-122" rx="63.11" ry="18"/>
<text text-anchor="middle" x="63.06" y="-119.2" font-family="Noto Sans CJK SC" font-size="11.00">/scan 十帧历史</text>
</g>
<!-- scan_history&#45;&gt;scope -->
<g id="edge5" class="edge">
<title>scan_history&#45;&gt;scope</title>
<path fill="none" stroke="#6b7280" d="M63.19,-140.24C63.19,-150.1 63.19,-160.27 63.19,-160.27 63.19,-160.27 249.1,-160.27 249.1,-160.27"/>
<polygon fill="#6b7280" stroke="#6b7280" points="249.1,-162.79 256.3,-160.27 249.1,-157.75 249.1,-162.79"/>
</g>
<!-- obstacle_layer -->
<g id="node9" class="node">
<title>obstacle_layer</title>
<path fill="#ddebfa" stroke="#2f6fab" stroke-width="1.2" d="M384.11,-36C384.11,-36 295.11,-36 295.11,-36 289.11,-36 283.11,-30 283.11,-24 283.11,-24 283.11,-12 283.11,-12 283.11,-6 289.11,0 295.11,0 295.11,0 384.11,0 384.11,0 390.11,0 396.11,-6 396.11,-12 396.11,-12 396.11,-24 396.11,-24 396.11,-30 390.11,-36 384.11,-36"/>
<text text-anchor="middle" x="339.61" y="-21.2" font-family="Noto Sans CJK SC" font-size="11.00">ObstacleLayer</text>
<text text-anchor="middle" x="339.61" y="-9.2" font-family="Noto Sans CJK SC" font-size="11.00">实测扫描标记/清除</text>
</g>
<!-- scan_history&#45;&gt;obstacle_layer -->
<g id="edge4" class="edge">
<title>scan_history&#45;&gt;obstacle_layer</title>
<path fill="none" stroke="#6b7280" d="M63.19,-103.88C63.19,-74.09 63.19,-18 63.19,-18 63.19,-18 275.81,-18 275.81,-18"/>
<polygon fill="#6b7280" stroke="#6b7280" points="275.81,-20.52 283.01,-18 275.81,-15.48 275.81,-20.52"/>
</g>
<!-- scope_layer -->
<g id="node8" class="node">
<title>scope_layer</title>
<path fill="#fff0e8" stroke="#c98216" stroke-width="1.2" d="M694.11,-124C694.11,-124 592.11,-124 592.11,-124 586.11,-124 580.11,-118 580.11,-112 580.11,-112 580.11,-88 580.11,-88 580.11,-82 586.11,-76 592.11,-76 592.11,-76 694.11,-76 694.11,-76 700.11,-76 706.11,-82 706.11,-88 706.11,-88 706.11,-112 706.11,-112 706.11,-118 700.11,-124 694.11,-124"/>
<text text-anchor="middle" x="643.11" y="-109.2" font-family="Noto Sans CJK SC" font-size="11.00">ScopeLayer 风险融合</text>
<text text-anchor="middle" x="643.11" y="-97.2" font-family="Noto Sans CJK SC" font-size="11.00">严格配对 + 旋转投影</text>
<text text-anchor="middle" x="643.11" y="-85.2" font-family="Noto Sans CJK SC" font-size="11.00">&lt;0.35 透明 / 200 / 254</text>
</g>
<!-- scope&#45;&gt;scope_layer -->
<g id="edge7" class="edge">
<title>scope&#45;&gt;scope_layer</title>
<path fill="none" stroke="#6b7280" d="M422.97,-160C512.84,-160 643.19,-160 643.19,-160 643.19,-160 643.19,-131.26 643.19,-131.26"/>
<polygon fill="#6b7280" stroke="#6b7280" points="645.71,-131.26 643.19,-124.06 640.67,-131.26 645.71,-131.26"/>
</g>
<!-- inflation_layer -->
<g id="node10" class="node">
<title>inflation_layer</title>
<path fill="#ddebfa" stroke="#2f6fab" stroke-width="1.2" d="M880.11,-142C880.11,-142 813.11,-142 813.11,-142 807.11,-142 801.11,-136 801.11,-130 801.11,-130 801.11,-118 801.11,-118 801.11,-112 807.11,-106 813.11,-106 813.11,-106 880.11,-106 880.11,-106 886.11,-106 892.11,-112 892.11,-118 892.11,-118 892.11,-130 892.11,-130 892.11,-136 886.11,-142 880.11,-142"/>
<text text-anchor="middle" x="846.61" y="-127.2" font-family="Noto Sans CJK SC" font-size="11.00">InflationLayer</text>
<text text-anchor="middle" x="846.61" y="-115.2" font-family="Noto Sans CJK SC" font-size="11.00">0.4 m 膨胀</text>
</g>
<!-- scope_layer&#45;&gt;inflation_layer -->
<g id="edge9" class="edge">
<title>scope_layer&#45;&gt;inflation_layer</title>
<path fill="none" stroke="#6b7280" d="M706.39,-115C706.39,-115 793.63,-115 793.63,-115"/>
<polygon fill="#6b7280" stroke="#6b7280" points="793.63,-117.52 800.83,-115 793.63,-112.48 793.63,-117.52"/>
<text text-anchor="middle" x="753.61" y="-121.8" font-family="Noto Sans CJK SC" font-size="9.00">max 合并</text>
</g>
<!-- obstacle_layer&#45;&gt;scope_layer -->
<g id="edge8" class="edge">
<title>obstacle_layer&#45;&gt;scope_layer</title>
<path fill="none" stroke="#6b7280" d="M396.36,-18C484.23,-18 643.19,-18 643.19,-18 643.19,-18 643.19,-68.64 643.19,-68.64"/>
<polygon fill="#6b7280" stroke="#6b7280" points="640.67,-68.64 643.19,-75.84 645.71,-68.64 640.67,-68.64"/>
<text text-anchor="middle" x="520.11" y="-41.8" font-family="Noto Sans CJK SC" font-size="9.00">先保留实测代价</text>
</g>
<!-- costmap_l -->
<g id="node11" class="node">
<title>costmap_l</title>
<ellipse fill="#fff1d6" stroke="#c98216" stroke-width="1.2" cx="1048.11" cy="-167" rx="62.45" ry="25.41"/>
<text text-anchor="middle" x="1048.11" y="-170.2" font-family="Noto Sans CJK SC" font-size="11.00">局部代价地图</text>
<text text-anchor="middle" x="1048.11" y="-158.2" font-family="Noto Sans CJK SC" font-size="11.00">max 组合结果</text>
</g>
<!-- inflation_layer&#45;&gt;costmap_l -->
<g id="edge10" class="edge">
<title>inflation_layer&#45;&gt;costmap_l</title>
<path fill="none" stroke="#6b7280" d="M847.19,-142.19C847.19,-157.18 847.19,-176 847.19,-176 847.19,-176 982.53,-176 982.53,-176"/>
<polygon fill="#6b7280" stroke="#6b7280" points="982.53,-178.52 989.73,-176 982.53,-173.48 982.53,-178.52"/>
</g>
<!-- costmap_l&#45;&gt;sampling -->
<g id="edge13" class="edge">
<title>costmap_l&#45;&gt;sampling</title>
<path fill="none" stroke="#6b7280" d="M1077.19,-189.54C1077.19,-203.48 1077.19,-218.73 1077.19,-218.73 1077.19,-218.73 1196.66,-218.73 1196.66,-218.73"/>
<polygon fill="#6b7280" stroke="#6b7280" points="1196.66,-221.25 1203.86,-218.73 1196.66,-216.21 1196.66,-221.25"/>
</g>
<!-- costmap_l&#45;&gt;critics -->
<g id="edge16" class="edge">
<title>costmap_l&#45;&gt;critics</title>
<path fill="none" stroke="#6b7280" d="M1095.47,-183.64C1095.47,-183.64 1372.83,-183.64 1372.83,-183.64"/>
<polygon fill="#6b7280" stroke="#6b7280" points="1372.83,-186.16 1380.03,-183.64 1372.83,-181.12 1372.83,-186.16"/>
</g>
<!-- sampling&#45;&gt;critics -->
<g id="edge14" class="edge">
<title>sampling&#45;&gt;critics</title>
<path fill="none" stroke="#6b7280" d="M1323.36,-218C1323.36,-218 1372.75,-218 1372.75,-218"/>
<polygon fill="#6b7280" stroke="#6b7280" points="1372.75,-220.52 1379.95,-218 1372.75,-215.48 1372.75,-220.52"/>
</g>
<!-- optimize -->
<g id="node14" class="node">
<title>optimize</title>
<path fill="#ddebfa" stroke="#2f6fab" stroke-width="1.2" d="M1754.11,-214C1754.11,-214 1647.11,-214 1647.11,-214 1641.11,-214 1635.11,-208 1635.11,-202 1635.11,-202 1635.11,-190 1635.11,-190 1635.11,-184 1641.11,-178 1647.11,-178 1647.11,-178 1754.11,-178 1754.11,-178 1760.11,-178 1766.11,-184 1766.11,-190 1766.11,-190 1766.11,-202 1766.11,-202 1766.11,-208 1760.11,-214 1754.11,-214"/>
<text text-anchor="middle" x="1700.61" y="-193.2" font-family="Noto Sans CJK SC" font-size="11.00">加权更新最优控制序列</text>
</g>
<!-- critics&#45;&gt;optimize -->
<g id="edge17" class="edge">
<title>critics&#45;&gt;optimize</title>
<path fill="none" stroke="#6b7280" d="M1578.2,-196C1578.2,-196 1627.78,-196 1627.78,-196"/>
<polygon fill="#6b7280" stroke="#6b7280" points="1627.78,-198.52 1634.98,-196 1627.78,-193.48 1627.78,-198.52"/>
</g>
<!-- velocity -->
<g id="node15" class="node">
<title>velocity</title>
<ellipse fill="#fff1d6" stroke="#c98216" stroke-width="1.2" cx="1896.65" cy="-196" rx="73.58" ry="25.41"/>
<text text-anchor="middle" x="1896.65" y="-199.2" font-family="Noto Sans CJK SC" font-size="11.00">下一时刻速度</text>
<text text-anchor="middle" x="1896.65" y="-187.2" font-family="Noto Sans CJK SC" font-size="11.00">→ /cmd_vel_nav</text>
</g>
<!-- optimize&#45;&gt;velocity -->
<g id="edge18" class="edge">
<title>optimize&#45;&gt;velocity</title>
<path fill="none" stroke="#6b7280" d="M1766.16,-196C1766.16,-196 1815.85,-196 1815.85,-196"/>
<polygon fill="#6b7280" stroke="#6b7280" points="1815.85,-198.52 1823.05,-196 1815.85,-193.48 1815.85,-198.52"/>
</g>
<!-- params -->
<g id="node16" class="node">
<title>params</title>
<polygon fill="#f8fafc" stroke="#94a3b8" stroke-width="1.2" points="1141.11,-112 949.11,-112 949.11,-64 1147.11,-64 1147.11,-106 1141.11,-112"/>
<polyline fill="none" stroke="#94a3b8" stroke-width="1.2" points="1141.11,-112 1141.11,-106 "/>
<polyline fill="none" stroke="#94a3b8" stroke-width="1.2" points="1147.11,-106 1141.11,-106 "/>
<text text-anchor="middle" x="1048.11" y="-97.2" font-family="Noto Sans CJK SC" font-size="11.00">核心参数（nav2_params.yaml）</text>
<text text-anchor="middle" x="1048.11" y="-85.2" font-family="Noto Sans CJK SC" font-size="11.00">time_steps / model_dt / batch_size</text>
<text text-anchor="middle" x="1048.11" y="-73.2" font-family="Noto Sans CJK SC" font-size="11.00">vx_std / vy_std / wz_std / critics</text>
</g>
<!-- params&#45;&gt;sampling -->
<g id="edge19" class="edge">
<title>params&#45;&gt;sampling</title>
<path fill="none" stroke="#7e5aa6" stroke-dasharray="5,2" d="M1123.19,-112.07C1123.19,-148.73 1123.19,-214.36 1123.19,-214.36 1123.19,-214.36 1196.86,-214.36 1196.86,-214.36"/>
<polygon fill="#7e5aa6" stroke="#7e5aa6" points="1196.86,-216.88 1204.06,-214.36 1196.86,-211.84 1196.86,-216.88"/>
</g>
<!-- params&#45;&gt;critics -->
<g id="edge20" class="edge">
<title>params&#45;&gt;critics</title>
<path fill="none" stroke="#7e5aa6" stroke-dasharray="5,2" d="M1135.19,-112.18C1135.19,-137.87 1135.19,-174.82 1135.19,-174.82 1135.19,-174.82 1372.9,-174.82 1372.9,-174.82"/>
<polygon fill="#7e5aa6" stroke="#7e5aa6" points="1372.9,-177.34 1380.1,-174.82 1372.9,-172.3 1372.9,-177.34"/>
</g>
<!-- fallback -->
<g id="node17" class="node">
<title>fallback</title>
<polygon fill="#f8fafc" stroke="#94a3b8" stroke-width="1.2" points="454.11,-114 219.11,-114 219.11,-66 460.11,-66 460.11,-108 454.11,-114"/>
<polyline fill="none" stroke="#94a3b8" stroke-width="1.2" points="454.11,-114 454.11,-108 "/>
<polyline fill="none" stroke="#94a3b8" stroke-width="1.2" points="460.11,-108 454.11,-108 "/>
<text text-anchor="middle" x="339.61" y="-99.2" font-family="Noto Sans CJK SC" font-size="11.00">SCOPE 超过 0.5 s 未形成完整消息对：</text>
<text text-anchor="middle" x="339.61" y="-87.2" font-family="Noto Sans CJK SC" font-size="11.00">撤销自身贡献，回退到 obstacle + inflation；</text>
<text text-anchor="middle" x="339.61" y="-75.2" font-family="Noto Sans CJK SC" font-size="11.00">不把 local costmap 标为 stale</text>
</g>
<!-- fallback&#45;&gt;scope_layer -->
<g id="edge21" class="edge">
<title>fallback&#45;&gt;scope_layer</title>
<path fill="none" stroke="#7e5aa6" stroke-dasharray="5,2" d="M460.44,-95C460.44,-95 572.58,-95 572.58,-95"/>
<polygon fill="#7e5aa6" stroke="#7e5aa6" points="572.58,-97.52 579.78,-95 572.58,-92.48 572.58,-97.52"/>
</g>
</g>
</svg>
