<?xml version="1.0" encoding="UTF-8" standalone="no"?>
<!DOCTYPE svg PUBLIC "-//W3C//DTD SVG 1.1//EN"
 "http://www.w3.org/Graphics/SVG/1.1/DTD/svg11.dtd">
<!-- Generated by graphviz version 2.43.0 (0)
 -->
<!-- Title: imperative_default_internal Pages: 1 -->
<svg width="1776pt" height="386pt"
 viewBox="0.00 0.00 1775.52 386.32" xmlns="http://www.w3.org/2000/svg" xmlns:xlink="http://www.w3.org/1999/xlink">
<g id="graph0" class="graph" transform="scale(1 1) rotate(0) translate(20.16 366.16)">
<title>imperative_default_internal</title>
<polygon fill="white" stroke="transparent" points="-20.16,20.16 -20.16,-366.16 1755.36,-366.16 1755.36,20.16 -20.16,20.16"/>
<text text-anchor="middle" x="867.6" y="-327.6" font-family="Noto Sans CJK SC" font-size="18.00">默认 Imperative：进程内算法流（不是 ROS 节点图）</text>
<!-- scan -->
<g id="node1" class="node">
<title>scan</title>
<ellipse fill="#fff1d6" stroke="#c98216" stroke-width="1.2" cx="50.98" cy="-238" rx="47.76" ry="18"/>
<text text-anchor="middle" x="50.98" y="-235.2" font-family="Noto Sans CJK SC" font-size="11.00">LaserScan</text>
</g>
<!-- points -->
<g id="node4" class="node">
<title>points</title>
<path fill="#ddebfa" stroke="#2f6fab" stroke-width="1.2" d="M280.96,-255C280.96,-255 168.96,-255 168.96,-255 162.96,-255 156.96,-249 156.96,-243 156.96,-243 156.96,-231 156.96,-231 156.96,-225 162.96,-219 168.96,-219 168.96,-219 280.96,-219 280.96,-219 286.96,-219 292.96,-225 292.96,-231 292.96,-231 292.96,-243 292.96,-243 292.96,-249 286.96,-255 280.96,-255"/>
<text text-anchor="middle" x="224.96" y="-240.2" font-family="Noto Sans CJK SC" font-size="11.00">有效量程 → 世界坐标点</text>
<text text-anchor="middle" x="224.96" y="-228.2" font-family="Noto Sans CJK SC" font-size="11.00">饱和 GPU scan 检测</text>
</g>
<!-- scan&#45;&gt;points -->
<g id="edge1" class="edge">
<title>scan&#45;&gt;points</title>
<path fill="none" stroke="#6b7280" d="M98.98,-237.5C98.98,-237.5 149.73,-237.5 149.73,-237.5"/>
<polygon fill="#6b7280" stroke="#6b7280" points="149.73,-240.02 156.93,-237.5 149.73,-234.98 149.73,-240.02"/>
</g>
<!-- odom -->
<g id="node2" class="node">
<title>odom</title>
<ellipse fill="#fff1d6" stroke="#c98216" stroke-width="1.2" cx="50.98" cy="-172" rx="50.96" ry="18"/>
<text text-anchor="middle" x="50.98" y="-169.2" font-family="Noto Sans CJK SC" font-size="11.00">Odom 状态</text>
</g>
<!-- odom&#45;&gt;points -->
<g id="edge2" class="edge">
<title>odom&#45;&gt;points</title>
<path fill="none" stroke="#6b7280" d="M101.84,-174C153.27,-174 225.2,-174 225.2,-174 225.2,-174 225.2,-211.58 225.2,-211.58"/>
<polygon fill="#6b7280" stroke="#6b7280" points="222.68,-211.58 225.2,-218.78 227.72,-211.58 222.68,-211.58"/>
</g>
<!-- rollout -->
<g id="node8" class="node">
<title>rollout</title>
<path fill="#fff0e8" stroke="#c98216" stroke-width="1.2" d="M1317.96,-158C1317.96,-158 1124.96,-158 1124.96,-158 1118.96,-158 1112.96,-152 1112.96,-146 1112.96,-146 1112.96,-134 1112.96,-134 1112.96,-128 1118.96,-122 1124.96,-122 1124.96,-122 1317.96,-122 1317.96,-122 1323.96,-122 1329.96,-128 1329.96,-134 1329.96,-134 1329.96,-146 1329.96,-146 1329.96,-152 1323.96,-158 1317.96,-158"/>
<text text-anchor="middle" x="1221.46" y="-143.2" font-family="Noto Sans CJK SC" font-size="11.00">候选加速度 rollout</text>
<text text-anchor="middle" x="1221.46" y="-131.2" font-family="Noto Sans CJK SC" font-size="11.00">trajectory_horizon × heading × speed</text>
</g>
<!-- odom&#45;&gt;rollout -->
<g id="edge9" class="edge">
<title>odom&#45;&gt;rollout</title>
<path fill="none" stroke="#6b7280" d="M51.2,-153.76C51.2,-146.57 51.2,-140 51.2,-140 51.2,-140 1105.74,-140 1105.74,-140"/>
<polygon fill="#6b7280" stroke="#6b7280" points="1105.74,-142.52 1112.94,-140 1105.74,-137.48 1105.74,-142.52"/>
</g>
<!-- goal -->
<g id="node3" class="node">
<title>goal</title>
<ellipse fill="#fff1d6" stroke="#c98216" stroke-width="1.2" cx="886.96" cy="-108" rx="97.04" ry="18"/>
<text text-anchor="middle" x="886.96" y="-105.2" font-family="Noto Sans CJK SC" font-size="11.00">固定目标 (goal_x, goal_y)</text>
</g>
<!-- goal&#45;&gt;rollout -->
<g id="edge10" class="edge">
<title>goal&#45;&gt;rollout</title>
<path fill="none" stroke="#6b7280" d="M974.2,-116.05C974.2,-124.12 974.2,-135.33 974.2,-135.33 974.2,-135.33 1105.45,-135.33 1105.45,-135.33"/>
<polygon fill="#6b7280" stroke="#6b7280" points="1105.45,-137.85 1112.65,-135.33 1105.45,-132.81 1105.45,-137.85"/>
</g>
<!-- detections -->
<g id="node5" class="node">
<title>detections</title>
<path fill="#ddebfa" stroke="#2f6fab" stroke-width="1.2" d="M466.96,-318C466.96,-318 359.96,-318 359.96,-318 353.96,-318 347.96,-312 347.96,-306 347.96,-306 347.96,-294 347.96,-294 347.96,-288 353.96,-282 359.96,-282 359.96,-282 466.96,-282 466.96,-282 472.96,-282 478.96,-288 478.96,-294 478.96,-294 478.96,-306 478.96,-306 478.96,-312 472.96,-318 466.96,-318"/>
<text text-anchor="middle" x="413.46" y="-303.2" font-family="Noto Sans CJK SC" font-size="11.00">聚类 / 几何检测</text>
<text text-anchor="middle" x="413.46" y="-291.2" font-family="Noto Sans CJK SC" font-size="11.00">静态与动态障碍物候选</text>
</g>
<!-- points&#45;&gt;detections -->
<g id="edge3" class="edge">
<title>points&#45;&gt;detections</title>
<path fill="none" stroke="#6b7280" d="M293.02,-245.25C347.27,-245.25 414.2,-245.25 414.2,-245.25 414.2,-245.25 414.2,-274.57 414.2,-274.57"/>
<polygon fill="#6b7280" stroke="#6b7280" points="411.68,-274.57 414.2,-281.77 416.72,-274.57 411.68,-274.57"/>
</g>
<!-- map -->
<g id="node7" class="node">
<title>map</title>
<path fill="#ddebfa" stroke="#2f6fab" stroke-width="1.2" d="M951.96,-254C951.96,-254 821.96,-254 821.96,-254 815.96,-254 809.96,-248 809.96,-242 809.96,-242 809.96,-230 809.96,-230 809.96,-224 815.96,-218 821.96,-218 821.96,-218 951.96,-218 951.96,-218 957.96,-218 963.96,-224 963.96,-230 963.96,-230 963.96,-242 963.96,-242 963.96,-248 957.96,-254 951.96,-254"/>
<text text-anchor="middle" x="886.96" y="-233.2" font-family="Noto Sans CJK SC" font-size="11.00">去动态残影后的局部点地图</text>
</g>
<!-- points&#45;&gt;map -->
<g id="edge5" class="edge">
<title>points&#45;&gt;map</title>
<path fill="none" stroke="#6b7280" d="M293.01,-227.75C293.01,-227.75 802.56,-227.75 802.56,-227.75"/>
<polygon fill="#6b7280" stroke="#6b7280" points="802.56,-230.27 809.76,-227.75 802.56,-225.23 802.56,-230.27"/>
</g>
<!-- tracks -->
<g id="node6" class="node">
<title>tracks</title>
<path fill="#ddebfa" stroke="#2f6fab" stroke-width="1.2" d="M648.96,-318C648.96,-318 545.96,-318 545.96,-318 539.96,-318 533.96,-312 533.96,-306 533.96,-306 533.96,-294 533.96,-294 533.96,-288 539.96,-282 545.96,-282 545.96,-282 648.96,-282 648.96,-282 654.96,-282 660.96,-288 660.96,-294 660.96,-294 660.96,-306 660.96,-306 660.96,-312 654.96,-318 648.96,-318"/>
<text text-anchor="middle" x="597.46" y="-303.2" font-family="Noto Sans CJK SC" font-size="11.00">轨迹更新 + 确认过滤</text>
<text text-anchor="middle" x="597.46" y="-291.2" font-family="Noto Sans CJK SC" font-size="11.00">Kalman 风格跟踪状态</text>
</g>
<!-- detections&#45;&gt;tracks -->
<g id="edge4" class="edge">
<title>detections&#45;&gt;tracks</title>
<path fill="none" stroke="#6b7280" d="M479.11,-300C479.11,-300 526.49,-300 526.49,-300"/>
<polygon fill="#6b7280" stroke="#6b7280" points="526.49,-302.52 533.69,-300 526.49,-297.48 526.49,-302.52"/>
</g>
<!-- tracks&#45;&gt;map -->
<g id="edge6" class="edge">
<title>tracks&#45;&gt;map</title>
<path fill="none" stroke="#6b7280" d="M619.2,-281.97C619.2,-263.2 619.2,-236.5 619.2,-236.5 619.2,-236.5 802.68,-236.5 802.68,-236.5"/>
<polygon fill="#6b7280" stroke="#6b7280" points="802.68,-239.02 809.88,-236.5 802.68,-233.98 802.68,-239.02"/>
</g>
<!-- tracks&#45;&gt;rollout -->
<g id="edge8" class="edge">
<title>tracks&#45;&gt;rollout</title>
<path fill="none" stroke="#6b7280" d="M577.2,-281.88C577.2,-240.9 577.2,-144.67 577.2,-144.67 577.2,-144.67 1105.7,-144.67 1105.7,-144.67"/>
<polygon fill="#6b7280" stroke="#6b7280" points="1105.7,-147.19 1112.9,-144.67 1105.7,-142.15 1105.7,-147.19"/>
</g>
<!-- map&#45;&gt;rollout -->
<g id="edge7" class="edge">
<title>map&#45;&gt;rollout</title>
<path fill="none" stroke="#6b7280" d="M887.2,-217.62C887.2,-192.18 887.2,-149.33 887.2,-149.33 887.2,-149.33 1105.74,-149.33 1105.74,-149.33"/>
<polygon fill="#6b7280" stroke="#6b7280" points="1105.74,-151.85 1112.94,-149.33 1105.74,-146.81 1105.74,-151.85"/>
</g>
<!-- choose -->
<g id="node9" class="node">
<title>choose</title>
<path fill="#ddebfa" stroke="#2f6fab" stroke-width="1.2" d="M1521.96,-94C1521.96,-94 1396.96,-94 1396.96,-94 1390.96,-94 1384.96,-88 1384.96,-82 1384.96,-82 1384.96,-70 1384.96,-70 1384.96,-64 1390.96,-58 1396.96,-58 1396.96,-58 1521.96,-58 1521.96,-58 1527.96,-58 1533.96,-64 1533.96,-70 1533.96,-70 1533.96,-82 1533.96,-82 1533.96,-88 1527.96,-94 1521.96,-94"/>
<text text-anchor="middle" x="1459.46" y="-79.2" font-family="Noto Sans CJK SC" font-size="11.00">碰撞 / 目标 / 动态阻挡评分</text>
<text text-anchor="middle" x="1459.46" y="-67.2" font-family="Noto Sans CJK SC" font-size="11.00">选择速度</text>
</g>
<!-- rollout&#45;&gt;choose -->
<g id="edge11" class="edge">
<title>rollout&#45;&gt;choose</title>
<path fill="none" stroke="#6b7280" d="M1330.01,-140C1393.07,-140 1460.2,-140 1460.2,-140 1460.2,-140 1460.2,-101.37 1460.2,-101.37"/>
<polygon fill="#6b7280" stroke="#6b7280" points="1462.72,-101.37 1460.2,-94.17 1457.68,-101.37 1462.72,-101.37"/>
</g>
<!-- cmd -->
<g id="node10" class="node">
<title>cmd</title>
<ellipse fill="#fff1d6" stroke="#c98216" stroke-width="1.2" cx="1662.08" cy="-76" rx="73.24" ry="18"/>
<text text-anchor="middle" x="1662.08" y="-73.2" font-family="Noto Sans CJK SC" font-size="11.00">Twist → /cmd_vel</text>
</g>
<!-- choose&#45;&gt;cmd -->
<g id="edge12" class="edge">
<title>choose&#45;&gt;cmd</title>
<path fill="none" stroke="#6b7280" d="M1534.05,-76C1534.05,-76 1581.47,-76 1581.47,-76"/>
<polygon fill="#6b7280" stroke="#6b7280" points="1581.47,-78.52 1588.67,-76 1581.47,-73.48 1581.47,-78.52"/>
</g>
<!-- params -->
<g id="node11" class="node">
<title>params</title>
<polygon fill="#f8fafc" stroke="#94a3b8" stroke-width="1.2" points="1051.96,-60 715.96,-60 715.96,0 1057.96,0 1057.96,-54 1051.96,-60"/>
<polyline fill="none" stroke="#94a3b8" stroke-width="1.2" points="1051.96,-60 1051.96,-54 "/>
<polyline fill="none" stroke="#94a3b8" stroke-width="1.2" points="1057.96,-54 1051.96,-54 "/>
<text text-anchor="middle" x="886.96" y="-45.2" font-family="Noto Sans CJK SC" font-size="11.00">关键参数</text>
<text text-anchor="middle" x="886.96" y="-33.2" font-family="Noto Sans CJK SC" font-size="11.00">control_period, max_speed, max_acceleration</text>
<text text-anchor="middle" x="886.96" y="-21.2" font-family="Noto Sans CJK SC" font-size="11.00">robot_radius, safety_margin</text>
<text text-anchor="middle" x="886.96" y="-9.2" font-family="Noto Sans CJK SC" font-size="11.00">trajectory_horizon=20, heading_samples=41, speed_samples=4</text>
</g>
<!-- params&#45;&gt;rollout -->
<g id="edge13" class="edge">
<title>params&#45;&gt;rollout</title>
<path fill="none" stroke="#7e5aa6" stroke-dasharray="5,2" d="M1034.2,-60.2C1034.2,-89.86 1034.2,-130.67 1034.2,-130.67 1034.2,-130.67 1105.61,-130.67 1105.61,-130.67"/>
<polygon fill="#7e5aa6" stroke="#7e5aa6" points="1105.61,-133.19 1112.81,-130.67 1105.61,-128.15 1105.61,-133.19"/>
</g>
<!-- params&#45;&gt;choose -->
<g id="edge14" class="edge">
<title>params&#45;&gt;choose</title>
<path fill="none" stroke="#7e5aa6" stroke-dasharray="5,2" d="M1009.2,-60.02C1009.2,-68.27 1009.2,-75 1009.2,-75 1009.2,-75 1377.66,-75 1377.66,-75"/>
<polygon fill="#7e5aa6" stroke="#7e5aa6" points="1377.66,-77.52 1384.86,-75 1377.66,-72.48 1377.66,-77.52"/>
</g>
</g>
</svg>
